<?xml version="1.0" encoding="utf-8"?>
<!-- Generator: Adobe Illustrator 25.4.1, SVG Export Plug-In . SVG Version: 6.00 Build 0)  -->
<svg version="1.1" id="Capa_1" xmlns="http://www.w3.org/2000/svg" xmlns:xlink="http://www.w3.org/1999/xlink" x="0px" y="0px"
	 viewBox="0 0 512 512" style="enable-background:new 0 0 512 512;" xml:space="preserve">
<style type="text/css">
	.st0{fill:#FFFFFF;}
</style>
<g>
	<g>
		<path class="st0" d="M454.12,180.5l55.3-81.58c2.64-3.89,3.3-8.79,1.79-13.24c-1.51-4.45-5.02-7.93-9.48-9.41l-181-60
			c-6.41-2.12-13.45,0.3-17.2,5.92L256,93.46l-47.52-71.28c-3.75-5.62-10.79-8.04-17.2-5.92l-181,60c-4.46,1.48-7.97,4.96-9.48,9.41
			s-0.85,9.35,1.79,13.24l55.3,81.58L2.59,262.08c-2.64,3.89-3.3,8.79-1.79,13.24s5.02,7.93,9.48,9.41L61,301.55V421.5
			c0,6.46,4.13,12.19,10.26,14.23l179.94,59.98c3.01,1.02,6.37,1.09,9.6,0.01l179.95-59.98c6.12-2.04,10.26-7.77,10.26-14.23V301.55
			l50.72-16.81c4.46-1.48,7.97-4.96,9.48-9.41c1.51-4.45,0.85-9.35-1.79-13.24L454.12,180.5z M322.14,48.34L473.46,98.5l-43.5,64.18
			l-150.59-50.19L322.14,48.34z M38.54,98.5l151.32-50.16l42.76,64.14L82.04,162.68L38.54,98.5z M38.54,262.5l43.5-64.18
			l150.59,50.2l-42.76,64.14C164.34,304.2,55.83,268.23,38.54,262.5z M241,460.69l-150-50V311.5l100.28,33.24
			c6.37,2.11,13.43-0.26,17.2-5.92L241,290.04V460.69z M256,224.69L123.44,180.5L256,136.31l132.57,44.19L256,224.69z M421,410.69
			l-150,50V290.04l32.52,48.78c3.77,5.66,10.83,8.03,17.2,5.92L421,311.5V410.69z M322.14,312.66l-42.76-64.14l150.59-50.2
			l43.5,64.18C470.88,263.36,326.6,311.17,322.14,312.66z"/>
	</g>
</g>
</svg>
