<?xml version="1.0" encoding="utf-8"?>
<!-- Generator: Adobe Illustrator 25.4.1, SVG Export Plug-In . SVG Version: 6.00 Build 0)  -->
<svg version="1.1" id="Layer_1" xmlns="http://www.w3.org/2000/svg" xmlns:xlink="http://www.w3.org/1999/xlink" x="0px" y="0px"
	 viewBox="0 0 490.7 490.7" style="enable-background:new 0 0 490.7 490.7;" xml:space="preserve">
<style type="text/css">
	.st0{fill:#FFFFFF;}
</style>
<g>
	<g>
		<path class="st0" d="M486.3,196c-2.2-4.1-5.1-7.7-8.7-10.7L287.5,25.7c-24.5-20.5-60-20.5-84.5,0L60.6,145.3
			c-7.6,6.4-8.6,17.7-2.2,25.4c6.4,7.6,17.7,8.6,25.4,2.2L226.2,53.3c11.1-9.3,27.1-9.3,38.2,0L443.9,204l-76.2,52
			c-8.2,5.6-10.3,16.8-4.7,25c3.5,5.1,9.1,7.8,14.9,7.8c3.5,0,7-1,10.1-3.1l66.7-45.5v178.7L302.2,266.4
			c-15.2-15.2-35.4-23.6-57-23.6s-41.7,8.4-57,23.6l-19.9,19.9L29.1,192.2c-4.6-3.1-10.4-3.9-15.7-2.2c-5.3,1.8-9.5,5.9-11.3,11.1
			c-1.4,3.9-2.1,8-2.1,12.1v230.5c0,9.8,3.8,18.9,10.7,25.8c3.5,3.5,8.1,5.3,12.7,5.3s9.2-1.8,12.7-5.3c0.1-0.1,0.2-0.3,0.3-0.4
			l177.3-177.3c8.4-8.4,19.6-13,31.5-13c11.9,0,23.1,4.6,31.5,13l152.5,152.5h-321c-9.9,0-18,8.1-18,18s8.1,18,18,18h345.9
			c9.8,0,18.8-3.9,25.4-10.3c0.2-0.1,0.3-0.3,0.5-0.4c0.1-0.1,0.3-0.3,0.4-0.4c6.4-6.6,10.3-15.6,10.3-25.4V213.3
			C490.7,207.2,489.2,201.3,486.3,196z M35.9,418.8V240.3l106.5,72L35.9,418.8z"/>
	</g>
</g>
</svg>
