<?xml version="1.0" encoding="utf-8"?>
<!-- Generator: Adobe Illustrator 25.4.1, SVG Export Plug-In . SVG Version: 6.00 Build 0)  -->
<svg version="1.1" id="Capa_1" xmlns="http://www.w3.org/2000/svg" xmlns:xlink="http://www.w3.org/1999/xlink" x="0px" y="0px"
	 viewBox="0 0 512 512" style="enable-background:new 0 0 512 512;" xml:space="preserve">
<style type="text/css">
	.st0{fill:#FFFFFF;}
</style>
<path class="st0" d="M480.08,342.89c9.44-12.86,13.91-26.58,13.29-40.78c-0.59-15.03-6.72-27.02-12.37-34.99
	c4.11-11.79,10.59-41.09-14.96-64.41c-16.96-15.47-45.19-22.36-83.9-20.5c-24.56,1.12-45.34,5.39-49.51,6.29l-0.44,0.08
	c-3,0.54-6.21,1.17-9.73,1.91c0.62-8.35,3.34-23.56,12.16-50.32c14.54-44.26,13.43-78.41-3.3-101.5
	c-18-24.84-46.61-26.77-54.95-26.77c-9.05,0-17.25,3.74-23.09,10.54c-12.22,14.2-11.03,39.06-9.72,50.35
	c-15.17,40.41-50.62,120.62-79.33,142.86c-0.93,0.64-1.63,1.34-2.2,1.91l-0.09,0.09c-7.19,7.58-13.34,16.38-18.33,26.21
	c-5.51-2.24-11.36-3.37-17.45-3.37h-61c-25.7,0-46.6,20.9-46.6,46.6v162.5c0,25.7,20.9,46.6,46.6,46.6h61
	c9.04,0,17.73-2.56,25.25-7.42l21.56,2.57c0.63,0.09,65.93,8.67,133.85,7.35c12.48,0.94,23.49,1.4,33.64,1.4
	c18.27,0,34.27-1.45,47.54-4.31c32.08-6.81,54.09-20.63,65.43-41.06c8-14.42,8.75-28.66,7.7-38.8
	c19.75-18.94,23.14-39.75,22.42-54.07C483.19,354.12,481.61,347.58,480.08,342.89z M445.26,326.85c-5.74,6.01-6.79,15.08-2.58,22.14
	c0.02,0.04,0.04,0.09,0.06,0.12c1.32,2.56,3.6,7.84,3.94,14.45c0.61,11.47-4.88,21.39-16.85,30.36c-6.42,4.92-8.95,13.28-6.33,20.86
	c0.57,2.01,3.07,12.3-2.29,21.87c-6,10.74-19.75,18.46-40.89,22.95c-17.51,3.77-41.54,4.48-71.45,2.1l-1.85-0.02l-0.05,0
	c-63.9,1.4-128.58-6.97-129.19-7.05l-5.2-0.61c0.13-1.46,0.2-2.94,0.2-4.44V287c0-4.15-0.57-8.32-1.7-12.43
	c2.1-7.28,6.87-19.77,16.82-30.6c44.65-35.77,87.26-149.93,91.96-162.79c1.11-2.9,1.4-6.11,0.86-9.28
	c-1.4-9.25-0.96-18.34-0.12-22.93c5.55,0.69,14.79,3.08,20.63,11.17c9.11,12.6,8.44,36.82-1.9,68.2
	c-17.75,53.78-18.76,81.25-3.48,94.79c8.43,7.53,19.16,7.53,26.53,4.98c6.44-1.47,11.95-2.58,16.81-3.38l0.4-0.08
	c0.16-0.04,0.34-0.08,0.52-0.12c0.24-0.05,0.49-0.11,0.71-0.16c31.64-6.89,83.63-9.76,100.3,5.42c12.81,11.71,4.46,27.02,2.56,30.12
	c-4.96,7.58-3.62,17.54,3.2,23.74c0.72,0.71,9.12,9.14,9.52,19.87c0.34,7.49-3.4,15.33-11.1,23.3L445.26,326.85z M135.77,287v162.5
	c0,5.29-4.31,9.6-9.6,9.6H63.79c-4.64-0.67-8.21-4.68-8.21-9.5V287c0-5.29,4.31-9.6,9.6-9.6h61
	C131.47,277.4,135.77,281.71,135.77,287z"/>
</svg>
