<?xml version="1.0" encoding="utf-8"?>
<!-- Generator: Adobe Illustrator 25.4.1, SVG Export Plug-In . SVG Version: 6.00 Build 0)  -->
<svg version="1.1" id="Capa_1" xmlns="http://www.w3.org/2000/svg" xmlns:xlink="http://www.w3.org/1999/xlink" x="0px" y="0px"
	 viewBox="0 0 512 512" style="enable-background:new 0 0 512 512;" xml:space="preserve">
<style type="text/css">
	.st0{fill:#FFFFFF;}
</style>
<g>
	<path class="st0" d="M416.05,123.11c-6.13-2.95-13.42-2.13-18.74,2.11c-0.66,0.53-67.04,52.82-130.68,52.82h-56.7
		c-25.4,0-46.06,20.66-46.06,46.06v28.35c0,25.4,20.66,46.06,46.06,46.06h38.98v67.33c0,9.79,7.93,17.72,17.72,17.72
		s17.72-7.93,17.72-17.72v-66.06c57.67,7.99,112.36,51.08,112.95,51.55c5.33,4.26,12.62,5.08,18.74,2.13
		c6.14-2.95,10.04-9.16,10.04-15.97V139.07C426.09,132.26,422.18,126.06,416.05,123.11L416.05,123.11z M209.94,263.09
		c-5.76,0-10.63-4.87-10.63-10.63v-28.35c0-5.76,4.87-10.63,10.63-10.63h38.98v49.61H209.94z M390.65,303.92
		c-25.36-15.51-64.61-35.2-106.3-39.82v-51.62c41.69-4.62,80.95-24.31,106.3-39.82V303.92z"/>
	<path class="st0" d="M465.06,192.22c-9.79,0-17.72,7.93-17.72,17.72v56.7c0,9.79,7.93,17.72,17.72,17.72s17.72-7.93,17.72-17.72
		v-56.7C482.78,200.15,474.85,192.22,465.06,192.22z"/>
	<path class="st0" d="M330.41,352.43c-9.79,0-17.72,7.93-17.72,17.72v59.49c0,9.77-7.95,17.72-17.72,17.72H82.37
		c-9.77,0-17.72-7.95-17.72-17.72V82.37c0-9.77,7.95-17.72,17.72-17.72h212.61c9.77,0,17.72,7.95,17.72,17.72v24.11
		c0,9.79,7.93,17.72,17.72,17.72s17.72-7.93,17.72-17.72V82.37c0-29.31-23.84-53.15-53.15-53.15H82.37
		c-29.31,0-53.15,23.84-53.15,53.15v347.26c0,29.31,23.84,53.15,53.15,53.15h212.61c29.31,0,53.15-23.84,53.15-53.15v-59.49
		C348.13,360.36,340.2,352.43,330.41,352.43z"/>
	<path class="st0" d="M170.96,411.91h35.43c9.79,0,17.72-7.93,17.72-17.72s-7.93-17.72-17.72-17.72h-35.43
		c-9.79,0-17.72,7.93-17.72,17.72S161.17,411.91,170.96,411.91z"/>
	<path class="st0" d="M206.39,121.35c9.79,0,17.72-7.93,17.72-17.72s-7.93-17.72-17.72-17.72h-35.43c-9.79,0-17.72,7.93-17.72,17.72
		s7.93,17.72,17.72,17.72H206.39z"/>
</g>
</svg>
