<?xml version="1.0" encoding="utf-8"?>
<!-- Generator: Adobe Illustrator 25.4.1, SVG Export Plug-In . SVG Version: 6.00 Build 0)  -->
<svg version="1.1" id="Capa_1" xmlns="http://www.w3.org/2000/svg" xmlns:xlink="http://www.w3.org/1999/xlink" x="0px" y="0px"
	 viewBox="0 0 512 512" style="enable-background:new 0 0 512 512;" xml:space="preserve">
<style type="text/css">
	.st0{fill:#FFFDFD;}
</style>
<path class="st0" d="M512,120v130c0,11-9,20-20,20s-20-9-20-20V120c0-22.1-17.9-40-40-40h-26v20c0,11-9,20-20,20s-20-9-20-20V80h-91
	v20c0,11-9,20-20,20s-20-9-20-20V80h-90v20c0,11-9,20-20,20s-20-9-20-20V80H80c-22.1,0-40,17.9-40,40v312c0,22.1,17.9,40,40,40h86
	c11,0,20,9,20,20s-9,20-20,20H80c-44.1,0-80-35.9-80-80V120c0-44.1,35.9-80,80-80h25V20c0-11,9-20,20-20s20,9,20,20v20h90V20
	c0-11,9-20,20-20s20,9,20,20v20h91V20c0-11,9-20,20-20s20,9,20,20v20h26C476.1,40,512,75.9,512,120z M145,210c0-11-9-20-20-20
	s-20,9-20,20s9,20,20,20S145,221,145,210z M299,230c11,0,20-9,20-20s-9-20-20-20s-20,9-20,20S288,230,299,230z M386,230
	c11,0,20-9,20-20s-9-20-20-20s-20,9-20,20S375,230,386,230z M145,297c0-11-9-20-20-20s-20,9-20,20s9,20,20,20S145,308,145,297z
	 M125,364c-11,0-20,9-20,20s9,20,20,20s20-9,20-20S136,364,125,364z M212,230c11,0,20-9,20-20s-9-20-20-20s-20,9-20,20
	S201,230,212,230z M192,297c0,11,9,20,20,20s20-9,20-20s-9-20-20-20S192,286,192,297z M232,384c0-11-9-20-20-20s-20,9-20,20
	s9,20,20,20S232,395,232,384z M279,297c0,11,9,20,20,20s20-9,20-20s-9-20-20-20S279,286,279,297z M462,310h-66c-11,0-20,9-20,20
	s9,20,20,20h49.9l-70.6,70.4c-2.2,2.2-5.7,2.3-8,0.2l-10.2-9.3c-8.9-8.1-20.4-12.4-32.4-12c-12,0.4-23.2,5.4-31.6,14.2l-61.6,64.8
	c-7.6,8-7.3,20.7,0.7,28.3c3.9,3.7,8.8,5.5,13.8,5.5c5.3,0,10.6-2.1,14.5-6.2l61.5-64.7c2.2-2.3,5.8-2.4,8.1-0.3l10.2,9.3
	c18.1,16.6,45.9,16,63.2-1.4l68.4-68.3V429c0,11,9,20,20,20s20-9,20-20v-69C512,332.4,489.6,310,462,310z"/>
</svg>
