<?xml version="1.0" encoding="utf-8"?>
<!-- Generator: Adobe Illustrator 25.4.1, SVG Export Plug-In . SVG Version: 6.00 Build 0)  -->
<svg version="1.1" id="Capa_1" xmlns="http://www.w3.org/2000/svg" xmlns:xlink="http://www.w3.org/1999/xlink" x="0px" y="0px"
	 viewBox="0 0 610 510" style="enable-background:new 0 0 610 510;" xml:space="preserve">
<style type="text/css">
	.st0{fill:#FFFFFF;}
</style>
<g>
	<path class="st0" d="M20.6,442.4c54.8,34.8,118.6,53.2,184.5,53.2c96.5,0,184.9-37.1,249-104.4c61.3-64.4,95-150.9,93.4-238.8
		c23.2-19.9,50.6-57.9,50.6-94.9c0-14.2-15.4-23.2-27.9-16c-21.8,12.8-41.8,16.2-62.2,10.4C466.1,11.3,403.8,2.7,351.4,31
		c-45.8,24.7-71.3,69.8-69,119.2c-77.5-9.5-149-48.3-198.9-108.6c-8.2-9.8-23.7-8.7-30.3,2.5c-24,41.2-23.8,88.9-2.9,127.4
		c-9.9,1.8-16.1,10.1-16.1,19.2c0,38.7,17.4,74.3,45.5,98.6c-5.2,5-7,12.5-4.7,19.2c12.3,37.1,40.3,66,75.2,80.5
		c-38,18.1-80,24.2-117.4,19.6C13.4,405.8,3.9,431.8,20.6,442.4L20.6,442.4z M210.1,395.2c13.8-10.6,6.5-32.8-10.9-33.2
		c-30.6-0.6-58.5-15.7-75.8-39.4c8.4-0.5,17-1.8,25.3-4c18.8-5.1,17.9-32.2-1.2-36c-34.6-7-61.8-32.2-72-64.6
		c9.3,2.3,18.8,3.6,28.2,3.8c18.7,0.1,25.8-23.9,10.5-34C79.9,165,65.2,124.9,75,87.3c60.1,60.9,141.7,97.6,227.9,101.7
		c12.4,0.8,21.6-10.9,18.9-22.6c-11.7-50.8,16.7-86.4,47.1-102.8c30.2-16.3,78.6-21.4,115.7,17.6c11,11.6,48.2,12.1,67.2,7.6
		c-8.5,16-21.5,31.2-33.8,39.7c-5.2,3.7-8.2,9.7-7.9,16.1c4,81.1-26.2,161.6-82.9,221.1c-57,59.9-135.9,92.9-222.2,92.9
		c-34.3,0-67.9-5.6-99.7-16.3C143.4,434.8,179.5,418.8,210.1,395.2L210.1,395.2z"/>
	<path class="st0" d="M205.1,500.2c-66.8,0-131.4-18.6-187-53.9c-10.8-6.9-12.5-18.7-9.3-27.5c3.2-8.7,12-16.7,24.6-15
		c35,4.3,72.1-1,105.5-15.1c-32.3-16.3-56.9-44.7-68.4-79c-2.3-6.8-1.2-14.3,2.7-20.1c-27.8-25.7-43.7-61.6-43.7-99.1
		c0-9.8,5.6-18.2,14.1-22C24,128.5,25.9,81.4,49.2,41.7c3.9-6.6,10.4-10.7,18-11.4c7.5-0.6,14.9,2.5,19.8,8.3
		c24.4,29.5,53.9,53.9,87.8,72.3c32.1,17.5,66.7,29,102.8,34c-0.3-49.7,26.1-93.5,71.6-118c26.6-14.3,56-19.8,85.1-15.9
		c28.6,3.9,54.9,16.6,76,36.9c18.8,5,37.2,1.7,57.5-10.3c7.3-4.2,16-4.3,23.3-0.1c7.3,4.2,11.6,11.7,11.6,20
		c0,36.3-25.1,74.5-50.5,97c1.1,88.1-33.3,175.4-94.7,239.9C392.4,462.6,302.8,500.2,205.1,500.2z M30.1,412.9
		c-6.8,0-11,4.7-12.6,9.1c-1.8,4.9-1.4,12.1,5.5,16.5l0,0c54.1,34.3,117,52.5,182,52.5c95.2,0,182.4-36.5,245.6-102.9
		c60.2-63.2,93.7-149,92.1-235.5l0-2.2l1.7-1.4c33.6-28.8,49-67.5,49-91.4c0-5-2.6-9.5-6.9-12c-4.4-2.5-9.6-2.5-14,0
		c-23.1,13.5-44,17-65.8,10.9l-1.1-0.3l-0.8-0.8C484.8,36,460,23.9,433,20.2c-27.1-3.7-54.6,1.5-79.4,14.8
		c-44,23.7-68.9,66.6-66.6,114.9l0.3,5.5l-5.4-0.7c-39.2-4.8-76.7-16.8-111.4-35.8c-34.9-19-65.3-44.1-90.5-74.5
		c-2.9-3.5-7.3-5.3-11.9-5c-4.6,0.4-8.5,2.9-10.8,6.8c-22.5,38.6-23.6,84.5-2.8,122.8l3.1,5.6l-6.3,1.1c-7.2,1.3-12.3,7.3-12.3,14.6
		c0,36.3,16,70.9,43.9,95.1l3.8,3.3l-3.7,3.5c-3.8,3.7-5.2,9.3-3.6,14.4c11.7,35.1,38.1,63.4,72.6,77.7l9.6,4l-9.4,4.5
		c-37.3,17.8-79.9,24.9-119.9,20C31.5,412.9,30.8,412.9,30.1,412.9z M205.1,463.2c-34.6,0-68.7-5.6-101.2-16.6L87.4,441l17.2-3.3
		c37.4-7.2,73-23.2,102.8-46.2l0,0c5.7-4.4,6.2-10.8,4.7-15.3c-1.5-4.5-5.6-9.4-12.9-9.6c-31.3-0.7-61-16.1-79.4-41.3l-5-6.8
		l8.4-0.5c8.7-0.6,16.8-1.9,24.4-3.9c7.8-2.1,10.4-8.8,10.2-13.9c-0.2-5.1-3.2-11.6-11.1-13.1c-35.7-7.2-64.6-33.2-75.5-67.8
		l-2.5-7.8l8,2c9.1,2.2,18.2,3.5,27.2,3.6c0,0,0.1,0,0.1,0c7.7,0,12-5.1,13.4-9.9c1.4-4.8,0.7-11.4-5.6-15.5
		C76.2,168.1,60,126.7,70.5,86.1l2-7.9l5.7,5.8c59.8,60.6,139.7,96.3,224.9,100.4c4.3,0.3,8.4-1.5,11.2-4.8c2.9-3.4,4-7.9,3-12.2
		c-12.3-53.3,17.5-90.7,49.4-107.9C398.3,42.5,449,37.1,488,78c9.3,9.8,44.5,10.6,62.8,6.3l9.9-2.3l-4.8,9
		c-8.7,16.4-22.2,32.2-35.2,41.3c-3.9,2.8-6.1,7.3-5.9,12c4,82.3-26.6,164.2-84.1,224.5C372.7,429.7,292.6,463.2,205.1,463.2z
		 M123.3,442.8c26.5,7.3,54,11.1,81.9,11.1c84.9,0,162.7-32.5,218.8-91.4c55.8-58.5,85.5-137.9,81.6-217.7c-0.4-8,3.3-15.5,9.8-20.1
		C525,118,535,107,542.8,95c-20.1,2.4-50.5,1-61.5-10.7c-35.4-37.1-81.4-32.2-110.1-16.7c-29,15.6-56,49.5-44.8,97.7
		c1.6,7.1-0.2,14.7-5,20.2c-4.7,5.6-11.5,8.5-18.8,8c-84.6-4.1-164.1-38.5-224.9-97.1c-5.5,34,9.3,67.6,39.1,87.3
		c8.7,5.7,12.4,15.9,9.4,26c-3,10.1-11.9,16.6-22.5,16.5c-7-0.1-14-0.8-21-2.1c11.5,27.6,36,47.9,65.7,53.8
		c10.7,2.1,18.1,10.9,18.5,21.9c0.4,11-6.5,20.2-17,23.1c-5.5,1.5-11.4,2.6-17.5,3.4c16.8,19,41.3,30.5,66.9,31
		c9.9,0.2,18.3,6.5,21.5,15.9c3.1,9.5,0,19.5-7.8,25.5l0,0C186.6,419.2,155.8,434.2,123.3,442.8z"/>
</g>
</svg>
