<?xml version="1.0" encoding="utf-8"?>
<!-- Generator: Adobe Illustrator 25.4.1, SVG Export Plug-In . SVG Version: 6.00 Build 0)  -->
<svg version="1.1" id="Capa_1" xmlns="http://www.w3.org/2000/svg" xmlns:xlink="http://www.w3.org/1999/xlink" x="0px" y="0px"
	 viewBox="0 0 610 510" style="enable-background:new 0 0 610 510;" xml:space="preserve">
<style type="text/css">
	.st0{fill:#FFFFFF;}
</style>
<path class="st0" d="M405,232.1l-148.6-84.6c-7.1-4-15.8-4-22.8,0.1c-7,4.1-11.4,11.6-11.4,19.8v169.2c0,8.1,4.3,15.7,11.4,19.8
	c7,4.1,15.7,4.1,22.8,0.1L405,271.8C420.3,263.2,420.3,240.6,405,232.1L405,232.1z M268,297.2v-90.5l79.5,45.3L268,297.2z
	 M590.7,130.5c-7.4-52.5-49.5-92.8-102.3-97.9c-41.7-4.1-107.1-9-181.5-9s-139.8,4.9-181.5,9C72.5,37.7,30.5,78,23,130.5
	c-11.7,83.1-11.7,160.3,0,243.5c7.4,52.5,49.5,92.8,102.3,97.9c41.7,4.1,107.1,9,181.5,9s139.8-4.9,181.5-9
	c52.8-5.2,94.9-45.4,102.3-97.9C602.4,290.8,602.4,213.6,590.7,130.5L590.7,130.5z M545.4,367.5c-4.5,31.5-29.7,55.7-61.5,58.8
	c-40.7,4-104.5,8.7-177.1,8.7s-136.4-4.7-177.1-8.7c-31.7-3.1-57-27.3-61.5-58.8c-5.5-39.1-8.3-77.9-8.3-115.3s2.8-76.2,8.3-115.3
	c4.5-31.5,29.7-55.7,61.5-58.8c40.7-4,104.5-8.7,177.1-8.7s136.4,4.7,177.1,8.7c31.7,3.1,57,27.3,61.5,58.8
	C556.5,215.8,556.5,288.6,545.4,367.5L545.4,367.5z"/>
</svg>
